<svg xmlns="http://www.w3.org/2000/svg" viewBox="0 0 1600 900" width="100%" height="100%">
  <defs>
    <pattern id="cadGrid" width="40" height="40" patternUnits="userSpaceOnUse">
      <path d="M 40 0 L 0 0 0 40" fill="none" stroke="#00f2ff" stroke-width="0.5" stroke-opacity="0.12"/>
      <path d="M 200 0 L 0 0 0 200" fill="none" stroke="#00f2ff" stroke-width="1" stroke-opacity="0.25"/>
    </pattern>
    <radialGradient id="schematicBg" cx="50%" cy="50%" r="75%">
      <stop offset="0%" stop-color="#081b33"/>
      <stop offset="100%" stop-color="#030b17"/>
    </radialGradient>
    <filter id="cyanGlow" x="-20%" y="-20%" width="140%" height="140%">
      <feGaussianBlur stdDeviation="2" result="blur"/>
      <feMerge>
        <feMergeNode in="blur"/>
        <feMergeNode in="SourceGraphic"/>
      </feMerge>
    </filter>
  </defs>

  <rect width="1600" height="900" fill="url(#schematicBg)"/>
  <rect width="1600" height="900" fill="url(#cadGrid)"/>
  <rect x="20" y="20" width="1560" height="860" fill="none" stroke="#00f2ff" stroke-width="1.5" stroke-opacity="0.4"/>
  <rect x="25" y="25" width="1550" height="850" fill="none" stroke="#00f2ff" stroke-width="0.5" stroke-opacity="0.2"/>

  <g fill="#00f2ff" font-family="'JetBrains Mono', monospace" font-size="9" fill-opacity="0.6">
    <text x="35" y="40">01</text><text x="400" y="40">02</text><text x="800" y="40">03</text><text x="1200" y="40">04</text><text x="1560" y="40">05</text>
    <text x="30" y="225">A</text><text x="30" y="450">B</text><text x="30" y="675">C</text><text x="30" y="865">D</text>
  </g>

  <line x1="800" y1="25" x2="800" y2="875" stroke="#00f2ff" stroke-width="1" stroke-opacity="0.3" stroke-dasharray="8,4"/>
  <line x1="25" y1="450" x2="1575" y2="450" stroke="#00f2ff" stroke-width="1" stroke-opacity="0.3" stroke-dasharray="8,4"/>

  <g id="top-down-view">
    <text x="60" y="65" fill="#00f2ff" font-family="'JetBrains Mono', monospace" font-size="14" font-weight="bold" letter-spacing="1.5">TOP-DOWN VIEW (PLAN)</text>
    <text x="60" y="82" fill="#94a3b8" font-family="'JetBrains Mono', monospace" font-size="10">LOA 3.56m | BOA 1.22m</text>

    <path d="M 690 225 C 640 180, 520 155, 360 155 C 220 155, 140 170, 110 185 L 110 265 C 140 280, 220 295, 360 295 C 520 295, 640 270, 690 225 Z" fill="#0c2444" fill-opacity="0.6" stroke="#00f2ff" stroke-width="2" filter="url(#cyanGlow)"/>

    <rect x="330" y="190" width="140" height="70" rx="12" fill="#08182b" stroke="#00f2ff" stroke-width="1.2" stroke-dasharray="4,2"/>
    <text x="400" y="222" fill="#00f2ff" font-family="'JetBrains Mono', monospace" font-size="10" font-weight="bold" text-anchor="middle">UNCREWED</text>
    <text x="400" y="236" fill="#94a3b8" font-family="'JetBrains Mono', monospace" font-size="9" text-anchor="middle">AVIONICS BAY</text>

    <rect x="615" y="213" width="24" height="24" rx="4" fill="#00f2ff" fill-opacity="0.25" stroke="#00f2ff" stroke-width="1.5"/>
    <circle cx="627" cy="225" r="5" fill="#00f2ff"/>
    <text x="627" y="202" fill="#00f2ff" font-family="'JetBrains Mono', monospace" font-size="9" text-anchor="middle">FORWARD LiDAR</text>
    <line x1="627" y1="205" x2="627" y2="213" stroke="#00f2ff" stroke-width="1"/>

    <path d="M 480 155 L 515 90 L 545 90 L 530 155" fill="#08182b" stroke="#00f2ff" stroke-width="1.5"/>
    <path d="M 480 295 L 515 360 L 545 360 L 530 295" fill="#08182b" stroke="#00f2ff" stroke-width="1.5"/>

    <path d="M 170 160 L 120 70 L 150 70 L 210 160" fill="#08182b" stroke="#00f2ff" stroke-width="1.5"/>
    <path d="M 170 290 L 120 380 L 150 380 L 210 290" fill="#08182b" stroke="#00f2ff" stroke-width="1.5"/>

    <line x1="110" y1="415" x2="690" y2="415" stroke="#94a3b8" stroke-width="1" stroke-opacity="0.5"/>
    <line x1="110" y1="410" x2="110" y2="420" stroke="#94a3b8" stroke-width="1"/>
    <line x1="690" y1="410" x2="690" y2="420" stroke="#94a3b8" stroke-width="1"/>
    <text x="400" y="430" fill="#94a3b8" font-family="'JetBrains Mono', monospace" font-size="10" text-anchor="middle">LOA: 3.56 METERS</text>
  </g>

  <g id="side-elevation" transform="translate(850, 0)">
    <text x="60" y="65" fill="#00f2ff" font-family="'JetBrains Mono', monospace" font-size="14" font-weight="bold" letter-spacing="1.5">PORT SIDE ELEVATION</text>
    <text x="60" y="82" fill="#94a3b8" font-family="'JetBrains Mono', monospace" font-size="10">DYNAMIC RUNNING MODES</text>

    <g transform="translate(0, 30)">
      <path d="M 50 140 C 180 95, 480 95, 600 135 C 570 165, 200 170, 50 140 Z" fill="#0c2444" fill-opacity="0.7" stroke="#00f2ff" stroke-width="2" filter="url(#cyanGlow)"/>

      <line x1="480" y1="145" x2="480" y2="245" stroke="#00f2ff" stroke-width="3"/>
      <path d="M 440 245 C 470 242, 510 242, 530 247 C 510 252, 460 252, 440 245 Z" fill="#00f2ff" stroke="#00f2ff" stroke-width="1.5"/>

      <line x1="150" y1="150" x2="150" y2="240" stroke="#00f2ff" stroke-width="3"/>
      <rect x="130" y="235" width="45" height="14" rx="4" fill="#08182b" stroke="#10b981" stroke-width="1.5"/>
      <line x1="128" y1="232" x2="128" y2="252" stroke="#10b981" stroke-width="2"/>
      <text x="185" y="246" fill="#10b981" font-family="'JetBrains Mono', monospace" font-size="8">1.0 kW POD</text>

      <line x1="20" y1="205" x2="640" y2="205" stroke="#38bdf8" stroke-width="1" stroke-dasharray="6,4" stroke-opacity="0.8"/>
      <text x="590" y="198" fill="#38bdf8" font-family="'JetBrains Mono', monospace" font-size="9" text-anchor="end">WATERLINE (FOILING)</text>

      <circle cx="480" cy="245" r="4" fill="#f59e0b"/>
      <text x="480" y="270" fill="#f59e0b" font-family="'JetBrains Mono', monospace" font-size="9" text-anchor="middle">100Hz FLAP ACTUATOR</text>
    </g>

    <g transform="translate(0, 240)">
      <path d="M 50 140 C 180 95, 480 95, 600 135 C 570 165, 200 170, 50 140 Z" fill="none" stroke="#94a3b8" stroke-width="1" stroke-opacity="0.3"/>
      <line x1="20" y1="145" x2="640" y2="145" stroke="#94a3b8" stroke-width="1" stroke-dasharray="3,3" stroke-opacity="0.4"/>
      <text x="590" y="138" fill="#94a3b8" font-family="'JetBrains Mono', monospace" font-size="8" text-anchor="end" fill-opacity="0.5">WATERLINE (DISPLACEMENT)</text>
    </g>
  </g>

  <g id="bottom-undercarriage" transform="translate(0, 470)">
    <text x="60" y="45" fill="#00f2ff" font-family="'JetBrains Mono', monospace" font-size="14" font-weight="bold" letter-spacing="1.5">BOTTOM-UP UNDERCARRIAGE</text>
    <text x="60" y="62" fill="#94a3b8" font-family="'JetBrains Mono', monospace" font-size="10">SUBMERGED FOIL GEOMETRY & POD LAYOUT</text>

    <path d="M 690 195 C 640 150, 520 125, 360 125 C 220 125, 140 140, 110 155 L 110 235 C 140 250, 220 265, 360 265 C 520 265, 640 240, 690 195 Z" fill="#08182b" fill-opacity="0.4" stroke="#00f2ff" stroke-width="1" stroke-dasharray="4,2"/>

    <rect x="500" y="60" width="22" height="270" rx="4" fill="#00f2ff" fill-opacity="0.3" stroke="#00f2ff" stroke-width="2"/>
    <line x1="511" y1="60" x2="511" y2="330" stroke="#00f2ff" stroke-width="1"/>
    <rect x="494" y="90" width="6" height="80" rx="1" fill="#f59e0b" stroke="#f59e0b" stroke-width="1"/>
    <rect x="494" y="220" width="6" height="80" rx="1" fill="#f59e0b" stroke="#f59e0b" stroke-width="1"/>
    <text x="475" y="80" fill="#f59e0b" font-family="'JetBrains Mono', monospace" font-size="9" text-anchor="end">SUBMERGED FLAPS</text>

    <rect x="150" y="145" width="60" height="20" rx="4" fill="#08182b" stroke="#10b981" stroke-width="2"/>
    <line x1="145" y1="140" x2="145" y2="170" stroke="#10b981" stroke-width="2.5"/>

    <rect x="150" y="225" width="60" height="20" rx="4" fill="#08182b" stroke="#10b981" stroke-width="2"/>
    <line x1="145" y1="220" x2="145" y2="250" stroke="#10b981" stroke-width="2.5"/>

    <path d="M 180 130 L 120 50 L 140 50 L 210 130" fill="#00f2ff" fill-opacity="0.3" stroke="#00f2ff" stroke-width="1.5"/>
    <path d="M 180 260 L 120 340 L 140 340 L 210 260" fill="#00f2ff" fill-opacity="0.3" stroke="#00f2ff" stroke-width="1.5"/>

    <line x1="511" y1="40" x2="511" y2="350" stroke="#94a3b8" stroke-width="0.75" stroke-dasharray="2,2"/>
    <line x1="535" y1="60" x2="535" y2="330" stroke="#94a3b8" stroke-width="1"/>
    <text x="548" y="200" fill="#94a3b8" font-family="'JetBrains Mono', monospace" font-size="9" transform="rotate(90, 548, 200)" text-anchor="middle">SPAN: 1.22m</text>
  </g>

  <g id="cfd-streamlines" transform="translate(850, 470)">
    <text x="60" y="45" fill="#00f2ff" font-family="'JetBrains Mono', monospace" font-size="14" font-weight="bold" letter-spacing="1.5">CFD HYDRODYNAMIC FLOW ANALYSIS</text>
    <text x="60" y="62" fill="#94a3b8" font-family="'JetBrains Mono', monospace" font-size="10">L/D EFFICIENCY & WAVE PATTERN</text>

    <rect x="40" y="85" width="620" height="230" rx="6" fill="#051326" stroke="#00f2ff" stroke-width="1" stroke-opacity="0.3"/>

    <path d="M 100 185 C 230 145, 480 145, 590 180 C 560 205, 250 210, 100 185 Z" fill="#0c2444" stroke="#00f2ff" stroke-width="2"/>
    <line x1="490" y1="185" x2="490" y2="265" stroke="#00f2ff" stroke-width="3"/>
    <line x1="170" y1="190" x2="170" y2="265" stroke="#00f2ff" stroke-width="3"/>

    <path d="M 40 120 Q 320 85 660 120" fill="none" stroke="#00f2ff" stroke-width="1.5" stroke-dasharray="16,4" stroke-opacity="0.8"/>
    <path d="M 40 140 Q 340 105 660 140" fill="none" stroke="#10b981" stroke-width="2" stroke-dasharray="12,3" stroke-opacity="0.9"/>
    <path d="M 40 160 C 200 145, 340 125, 660 160" fill="none" stroke="#00f2ff" stroke-width="1.2" stroke-opacity="0.6"/>

    <path d="M 40 225 Q 260 215 480 235 T 660 220" fill="none" stroke="#38bdf8" stroke-width="2"/>
    <path d="M 40 245 C 180 245, 300 280, 480 265 C 560 255, 620 270, 660 260" fill="none" stroke="#00f2ff" stroke-width="1.5" stroke-dasharray="8,4"/>
    <path d="M 100 275 Q 170 305 280 285" fill="none" stroke="#f59e0b" stroke-width="2" stroke-opacity="0.8"/>

    <g transform="translate(360, 175)">
      <line x1="0" y1="0" x2="0" y2="-55" stroke="#10b981" stroke-width="2.5"/>
      <polygon points="0,-60 -4,-50 4,-50" fill="#10b981"/>
      <text x="10" y="-45" fill="#10b981" font-family="'JetBrains Mono', monospace" font-size="10" font-weight="bold">LIFT (L)</text>
      <line x1="0" y1="0" x2="-45" y2="0" stroke="#f43f5e" stroke-width="2"/>
      <polygon points="-50,0 -40,-4 -40,4" fill="#f43f5e"/>
      <text x="-45" y="-10" fill="#f43f5e" font-family="'JetBrains Mono', monospace" font-size="9">DRAG (D)</text>
      <line x1="0" y1="0" x2="55" y2="0" stroke="#00f2ff" stroke-width="2.5"/>
      <polygon points="60,0 50,-4 50,4" fill="#00f2ff"/>
      <text x="25" y="18" fill="#00f2ff" font-family="'JetBrains Mono', monospace" font-size="9" font-weight="bold">THRUST (T)</text>
    </g>
  </g>

  <g transform="translate(1050, 770)">
    <rect x="0" y="0" width="510" height="95" fill="#061324" stroke="#00f2ff" stroke-width="1.5"/>
    <line x1="0" y1="32" x2="510" y2="32" stroke="#00f2ff" stroke-width="0.75" stroke-opacity="0.4"/>
    <line x1="280" y1="32" x2="280" y2="95" stroke="#00f2ff" stroke-width="0.75" stroke-opacity="0.4"/>
    
    <text x="15" y="22" fill="#00f2ff" font-family="'JetBrains Mono', monospace" font-size="12" font-weight="bold" letter-spacing="2">AERO-MARINE SYSTEMS // HONG KONG</text>
    <text x="15" y="50" fill="#94a3b8" font-family="'JetBrains Mono', monospace" font-size="9">PROJECT: <tspan fill="#fff" font-weight="bold">BAYWING-D1 (1:8 DEMONSTRATOR)</tspan></text>
    <text x="15" y="68" fill="#94a3b8" font-family="'JetBrains Mono', monospace" font-size="9">SCALE: 1:8 FROUDE DYNAMIC MODEL</text>
    <text x="15" y="84" fill="#94a3b8" font-family="'JetBrains Mono', monospace" font-size="9">DOC ID: <tspan fill="#00f2ff">AM-EF150-FS-2026</tspan></text>
    
    <text x="295" y="50" fill="#94a3b8" font-family="'JetBrains Mono', monospace" font-size="9">DISPLACEMENT: <tspan fill="#fff">109 KG</tspan></text>
    <text x="295" y="68" fill="#94a3b8" font-family="'JetBrains Mono', monospace" font-size="9">SPEED: <tspan fill="#10b981">13.4 KNOTS (Fn 1.17)</tspan></text>
    <text x="295" y="84" fill="#94a3b8" font-family="'JetBrains Mono', monospace" font-size="9">STATUS: <tspan fill="#f59e0b">HKSTP FEASIBILITY PASS</tspan></text>
  </g>
</svg>
